<?xml version="1.0" standalone="no"?><!DOCTYPE svg PUBLIC "-//W3C//DTD SVG 1.1//EN" "http://www.w3.org/Graphics/SVG/1.1/DTD/svg11.dtd"><svg xmlns:xlink="http://www.w3.org/1999/xlink" version="1.1" class="highcharts-root" style="font-family: arial; font-size: 12px;" xmlns="http://www.w3.org/2000/svg" width="600" height="400" viewBox="0 0 600 400" role="img" aria-label="Rainy Days"><desc>Created with Highcharts 10.2.0</desc><defs><clipPath id="highcharts-f8inxdf-214-"><rect x="0" y="0" width="515" height="255" fill="none"></rect></clipPath><clipPath id="highcharts-f8inxdf-227-"><rect x="0" y="0" width="515" height="255" fill="none"></rect></clipPath></defs><rect fill="#ffffff" class="highcharts-background" x="0" y="0" width="600" height="400" rx="0" ry="0"></rect><rect fill="none" class="highcharts-plot-background" x="75" y="66" width="515" height="255"></rect><g class="highcharts-pane-group" data-z-index="0"></g><g class="highcharts-grid highcharts-xaxis-grid" data-z-index="1"><path fill="none" stroke-dasharray="none" data-z-index="1" class="highcharts-grid-line" d="M 117.5 66 L 117.5 321" opacity="1"></path><path fill="none" stroke-dasharray="none" data-z-index="1" class="highcharts-grid-line" d="M 160.5 66 L 160.5 321" opacity="1"></path><path fill="none" stroke-dasharray="none" data-z-index="1" class="highcharts-grid-line" d="M 203.5 66 L 203.5 321" opacity="1"></path><path fill="none" stroke-dasharray="none" data-z-index="1" class="highcharts-grid-line" d="M 246.5 66 L 246.5 321" opacity="1"></path><path fill="none" stroke-dasharray="none" data-z-index="1" class="highcharts-grid-line" d="M 289.5 66 L 289.5 321" opacity="1"></path><path fill="none" stroke-dasharray="none" data-z-index="1" class="highcharts-grid-line" d="M 332.5 66 L 332.5 321" opacity="1"></path><path fill="none" stroke-dasharray="none" data-z-index="1" class="highcharts-grid-line" d="M 374.5 66 L 374.5 321" opacity="1"></path><path fill="none" stroke-dasharray="none" data-z-index="1" class="highcharts-grid-line" d="M 417.5 66 L 417.5 321" opacity="1"></path><path fill="none" stroke-dasharray="none" data-z-index="1" class="highcharts-grid-line" d="M 460.5 66 L 460.5 321" opacity="1"></path><path fill="none" stroke-dasharray="none" data-z-index="1" class="highcharts-grid-line" d="M 503.5 66 L 503.5 321" opacity="1"></path><path fill="none" stroke-dasharray="none" data-z-index="1" class="highcharts-grid-line" d="M 546.5 66 L 546.5 321" opacity="1"></path><path fill="none" stroke-dasharray="none" data-z-index="1" class="highcharts-grid-line" d="M 589.5 66 L 589.5 321" opacity="1"></path><path fill="none" stroke-dasharray="none" data-z-index="1" class="highcharts-grid-line" d="M 74.5 66 L 74.5 321" opacity="1"></path></g><g class="highcharts-grid highcharts-yaxis-grid" data-z-index="1"><path fill="none" stroke="#e6e6e6" stroke-width="1" stroke-dasharray="none" data-z-index="1" class="highcharts-grid-line" d="M 75 321.5 L 590 321.5" opacity="1"></path><path fill="none" stroke="#e6e6e6" stroke-width="1" stroke-dasharray="none" data-z-index="1" class="highcharts-grid-line" d="M 75 257.5 L 590 257.5" opacity="1"></path><path fill="none" stroke="#e6e6e6" stroke-width="1" stroke-dasharray="none" data-z-index="1" class="highcharts-grid-line" d="M 75 194.5 L 590 194.5" opacity="1"></path><path fill="none" stroke="#e6e6e6" stroke-width="1" stroke-dasharray="none" data-z-index="1" class="highcharts-grid-line" d="M 75 130.5 L 590 130.5" opacity="1"></path><path fill="none" stroke="#e6e6e6" stroke-width="1" stroke-dasharray="none" data-z-index="1" class="highcharts-grid-line" d="M 75 65.5 L 590 65.5" opacity="1"></path></g><rect fill="none" class="highcharts-plot-border" data-z-index="1" x="75" y="66" width="515" height="255"></rect><g class="highcharts-axis highcharts-xaxis" data-z-index="2"><path fill="none" class="highcharts-axis-line" stroke="#ccd6eb" stroke-width="1" data-z-index="7" d="M 75 321.5 L 590 321.5"></path></g><g class="highcharts-axis highcharts-yaxis" data-z-index="2"><path fill="none" class="highcharts-axis-line" data-z-index="7" d="M 75 66 L 75 321"></path></g><g class="highcharts-series-group" data-z-index="3"><g class="highcharts-series highcharts-series-0 highcharts-spline-series" data-z-index="0.1" opacity="1" transform="translate(75,66) scale(1 1)" clip-path="url(#highcharts-f8inxdf-227-)"><path fill="none" d="M 21.458333333333 15.300000000000011 C 21.458333333333 15.300000000000011 47.2083333333332 54.82499999999999 64.375 54.82499999999999 C 81.541666666668 54.82499999999999 90.125000000002 28.05000000000001 107.29166666667 28.05000000000001 C 124.45833333333398 28.05000000000001 133.041666666666 45.39000000000172 150.20833333333 59.92500000000001 C 167.374999999998 74.46000000000171 175.95833333333198 83.38499999999797 193.125 100.725 C 210.291666666664 118.06499999999797 218.874999999996 124.18500000000262 236.04166666666 146.625 C 253.20833333332803 169.0650000000026 261.791666666662 211.65000000000003 278.95833333333 212.925 C 296.124999999998 214.2 304.708333333332 214.2 321.875 214.2 C 339.04166666666396 214.2 347.624999999996 194.56499999999733 364.79166666666 172.125 C 381.958333333328 149.68499999999733 390.54166666666197 134.38500000000005 407.70833333333 102 C 424.874999999998 69.61500000000004 433.458333333332 10.199999999999989 450.625 10.199999999999989 C 467.79166666666396 10.199999999999989 493.54166666666 12.75 493.54166666666 12.75" class="highcharts-graph" data-z-index="1" stroke="#E89212" stroke-width="4" stroke-linejoin="round" stroke-linecap="round"></path></g><g class="highcharts-markers highcharts-series-0 highcharts-spline-series" data-z-index="0.1" opacity="1" transform="translate(75,66) scale(1 1)" clip-path="none"></g></g><text x="300" text-anchor="middle" class="highcharts-title" data-z-index="4" style="color: rgb(51, 51, 51); font-size: 2em; fill: rgb(51, 51, 51);" y="30">Rainy Days</text><text x="300" text-anchor="middle" class="highcharts-subtitle" data-z-index="4" style="color: rgb(102, 102, 102); fill: rgb(102, 102, 102);" y="51"># of days with over 1/10 inch of rain</text><text x="10" text-anchor="start" class="highcharts-caption" data-z-index="4" style="color: rgb(102, 102, 102); fill: rgb(102, 102, 102);" y="397"></text><g class="highcharts-legend highcharts-no-tooltip" data-z-index="7" transform="translate(261,357)"><rect fill="none" class="highcharts-legend-box" rx="0" ry="0" x="0" y="0" width="78" height="28"></rect><g data-z-index="1"><g><g class="highcharts-legend-item highcharts-spline-series highcharts-color-undefined highcharts-series-0" data-z-index="1" transform="translate(8,3)"><path fill="none" d="M 0 13 L 16 13" class="highcharts-graph" stroke="#E89212" stroke-width="4"></path><text x="21" text-anchor="start" data-z-index="2" y="17" style="color: rgb(51, 51, 51); cursor: pointer; font-size: 14px; font-weight: bold; fill: rgb(51, 51, 51);">Salem</text></g></g></g></g><g class="highcharts-axis-labels highcharts-xaxis-labels" data-z-index="7"><text x="96.45833333333667" style="color: rgb(153, 153, 153); cursor: default; font-size: 1.2em; fill: rgb(153, 153, 153);" text-anchor="middle" transform="translate(0,0)" y="343" opacity="1">Jan</text><text x="139.37499999999665" style="color: rgb(153, 153, 153); cursor: default; font-size: 1.2em; fill: rgb(153, 153, 153);" text-anchor="middle" transform="translate(0,0)" y="343" opacity="1">Feb</text><text x="182.29166666666666" style="color: rgb(153, 153, 153); cursor: default; font-size: 1.2em; fill: rgb(153, 153, 153);" text-anchor="middle" transform="translate(0,0)" y="343" opacity="1">Mar</text><text x="225.20833333332666" style="color: rgb(153, 153, 153); cursor: default; font-size: 1.2em; fill: rgb(153, 153, 153);" text-anchor="middle" transform="translate(0,0)" y="343" opacity="1">Apr</text><text x="268.1249999999967" style="color: rgb(153, 153, 153); cursor: default; font-size: 1.2em; fill: rgb(153, 153, 153);" text-anchor="middle" transform="translate(0,0)" y="343" opacity="1">May</text><text x="311.0416666666667" style="color: rgb(153, 153, 153); cursor: default; font-size: 1.2em; fill: rgb(153, 153, 153);" text-anchor="middle" transform="translate(0,0)" y="343" opacity="1">Jun</text><text x="353.95833333332666" style="color: rgb(153, 153, 153); cursor: default; font-size: 1.2em; fill: rgb(153, 153, 153);" text-anchor="middle" transform="translate(0,0)" y="343" opacity="1">Jul</text><text x="396.8749999999967" style="color: rgb(153, 153, 153); cursor: default; font-size: 1.2em; fill: rgb(153, 153, 153);" text-anchor="middle" transform="translate(0,0)" y="343" opacity="1">Aug</text><text x="439.7916666666667" style="color: rgb(153, 153, 153); cursor: default; font-size: 1.2em; fill: rgb(153, 153, 153);" text-anchor="middle" transform="translate(0,0)" y="343" opacity="1">Sep</text><text x="482.70833333332666" style="color: rgb(153, 153, 153); cursor: default; font-size: 1.2em; fill: rgb(153, 153, 153);" text-anchor="middle" transform="translate(0,0)" y="343" opacity="1">Oct</text><text x="525.6249999999966" style="color: rgb(153, 153, 153); cursor: default; font-size: 1.2em; fill: rgb(153, 153, 153);" text-anchor="middle" transform="translate(0,0)" y="343" opacity="1">Nov</text><text x="568.5416666666666" style="color: rgb(153, 153, 153); cursor: default; font-size: 1.2em; fill: rgb(153, 153, 153);" text-anchor="middle" transform="translate(0,0)" y="343" opacity="1">Dec</text></g><g class="highcharts-axis-labels highcharts-yaxis-labels" data-z-index="7"><text x="60" style="color: rgb(153, 153, 153); cursor: default; font-size: 1.2em; fill: rgb(153, 153, 153);" text-anchor="end" transform="translate(0,0)" y="327" opacity="1">0 days</text><text x="60" style="color: rgb(153, 153, 153); cursor: default; font-size: 1.2em; fill: rgb(153, 153, 153);" text-anchor="end" transform="translate(0,0)" y="263" opacity="1">5 days</text><text x="60" style="color: rgb(153, 153, 153); cursor: default; font-size: 1.2em; fill: rgb(153, 153, 153);" text-anchor="end" transform="translate(0,0)" y="199" opacity="1">10 days</text><text x="60" text-anchor="end" transform="translate(0,0)" style="color: rgb(153, 153, 153); cursor: default; font-size: 1.2em; fill: rgb(153, 153, 153);" y="136" opacity="1">15 days</text><text x="60" text-anchor="end" transform="translate(0,0)" style="color: rgb(153, 153, 153); cursor: default; font-size: 1.2em; fill: rgb(153, 153, 153);" y="72" opacity="1">20 days</text></g><text x="590" class="highcharts-credits" text-anchor="end" data-z-index="8" y="395" style="cursor: pointer; color: rgb(153, 153, 153); font-size: 9px; fill: rgb(153, 153, 153);">BestPlaces.Net</text></svg>